/vscmnt/brussel_pixiu_data/_data_brussel/112/vsc11236/PredSimResults/SUBJ10mtu3D/worker5.mot
version=1
nRows=8
nColumns=50
inDegrees=yes
endheader
                time	         pelvis_tilt	         pelvis_list	     pelvis_rotation	           pelvis_tx	           pelvis_ty	           pelvis_tz	       hip_flexion_r	     hip_adduction_r	      hip_rotation_r	        knee_angle_r	       ankle_angle_r	         mtp_angle_r	       hip_flexion_l	     hip_adduction_l	      hip_rotation_l	        knee_angle_l	       ankle_angle_l	         mtp_angle_l	    lumbar_extension	      lumbar_bending	     lumbar_rotation	 ercspn_r/activation	 intobl_r/activation	 extobl_r/activation	    abd_r/activation	    add_r/activation	hamstrings_r/activation	bifemsh_r/activation	glut_max_r/activation	iliopsoas_r/activation	rect_fem_r/activation	  vasti_r/activation	gastroc_r/activation	 soleus_r/activation	tib_ant_r/activation	 ercspn_l/activation	 intobl_l/activation	 extobl_l/activation	    abd_l/activation	    add_l/activation	hamstrings_l/activation	bifemsh_l/activation	glut_max_l/activation	iliopsoas_l/activation	rect_fem_l/activation	  vasti_l/activation	gastroc_l/activation	 soleus_l/activation	tib_ant_l/activation	
          0.00000000	         -3.74491449	         -0.72440844	          9.14194927	          0.00000000	          0.82183069	         -0.01466545	         30.08941653	         -2.17582883	         -7.48524696	         -6.73893217	          0.08210912	          0.27574472	        -17.97765275	         -0.62927129	          1.16104646	         -4.58831809	          6.67660789	         28.21536501	         -7.62941199	         -0.76424442	         -5.39253974	          0.09844916	          0.18394305	          0.01000000	          0.00999999	          0.13309673	          0.11557000	          0.29695777	          0.03974795	          0.10825454	          0.01000001	          0.00999999	          0.01668092	          0.01185968	          0.29922380	          0.08740232	          0.00999999	          0.00999999	          0.04973301	          0.01000000	          0.01488511	          0.21636764	          0.01000003	          0.36951327	          0.01000008	          0.00999999	          0.32119625	          0.24573712	          0.02140018	
          0.01115811	         -3.78670095	         -0.71937978	          9.21663838	          0.01556807	          0.82054770	         -0.01466334	         30.00385201	         -2.04444931	         -7.06843730	         -8.42445398	         -0.31421837	          0.26012128	        -18.06855298	         -0.75918973	          0.84153468	         -6.24422807	          5.93147641	         29.83895373	         -7.45997041	         -0.29124476	         -5.59955197	          0.08301162	          0.15509948	          0.01000000	          0.01147109	          0.11222619	          0.10164405	          0.25039270	          0.08383313	          0.09127944	          0.00999999	          0.00999999	          0.01406523	          0.01000000	          0.40845297	          0.10323455	          0.00999999	          0.01000002	          0.04193451	          0.01185966	          0.01636461	          0.18243961	          0.01000002	          0.31157089	          0.01000000	          0.00999999	          0.28168512	          0.23542039	          0.01804448	
          0.02231623	         -3.81895929	         -0.72327712	          9.23684456	          0.03134962	          0.81956485	         -0.01453893	         29.80254678	         -1.90208021	         -6.70934237	         -9.88901801	         -0.86679069	          0.24981549	        -18.02236000	         -0.89742398	          0.47641504	         -8.16145834	          5.04640736	         31.37825635	         -7.28409549	          0.19398339	         -5.78258494	          0.09232030	          0.13077874	          0.01000000	          0.05131252	          0.11008266	          0.08792958	          0.21112930	          0.09487221	          0.07696615	          0.01000000	          0.00999999	          0.01185970	          0.00999999	          0.51448177	          0.11235061	          0.00999999	          0.01000000	          0.03535887	          0.01000000	          0.01379864	          0.15383175	          0.01000000	          0.26271429	          0.01000003	          0.01000000	          0.23751483	          0.22113676	          0.01521497	
          0.03347434	         -3.84162597	         -0.71530828	          9.20391777	          0.04716190	          0.81897478	         -0.01429298	         29.58708063	         -1.76342221	         -6.44014462	        -11.33947943	         -1.40357551	          0.23341011	        -17.77788979	         -1.02234668	          0.06466382	        -10.42565334	          4.03416705	         32.72964343	         -7.12496742	          0.66734962	         -5.93808250	          0.10355800	          0.11027168	          0.01000000	          0.10168287	          0.15974181	          0.07770071	          0.17802268	          0.10232899	          0.06489729	          0.01000000	          0.00999999	          0.01000001	          0.00999999	          0.56668192	          0.15198553	          0.00999999	          0.00999999	          0.02981434	          0.01071088	          0.01534356	          0.12970980	          0.01164935	          0.22151877	          0.01000003	          0.01000002	          0.20027076	          0.20337182	          0.01282915	
          0.04463246	         -3.85378990	         -0.69956907	          9.12455316	          0.06289836	          0.81885942	         -0.01393526	         29.40462727	         -1.62685680	         -6.23288154	        -12.90007873	         -1.68716673	          0.21390148	        -17.29040882	         -1.14244384	         -0.39857753	        -13.09437014	          2.91766809	         33.73509321	         -6.98702047	          1.13005002	         -6.06796492	          0.11143817	          0.09298027	          0.01000000	          0.14220928	          0.21011370	          0.06551670	          0.15010742	          0.12565959	          0.05472092	          0.01000000	          0.00999999	          0.00999999	          0.00999999	          0.54349096	          0.19262228	          0.00999999	          0.00999999	          0.02513923	          0.04262850	          0.01541497	          0.10937036	          0.01000000	          0.18678300	          0.01000001	          0.01000000	          0.16886684	          0.18103034	          0.01081745	
          0.05579057	         -3.85531776	         -0.67380903	          9.00010598	          0.07845293	          0.81931604	         -0.01347654	         29.27915602	         -1.49802459	         -6.07905382	        -14.62188854	         -1.58524454	          0.19745806	        -16.51203350	         -1.25962635	         -0.92831765	        -16.22720349	          1.71493193	         34.19952641	         -6.87454997	          1.57604794	         -6.17216605	          0.11772450	          0.07840028	          0.01000000	          0.16434900	          0.25872448	          0.05524322	          0.12656948	          0.13839516	          0.04614028	          0.01000000	          0.01268548	          0.00999999	          0.00999999	          0.45826759	          0.21931865	          0.00999999	          0.00999999	          0.02119722	          0.08674315	          0.01522822	          0.09222029	          0.00999999	          0.15749406	          0.01000000	          0.00999999	          0.14238728	          0.15264346	          0.00999999	
          0.06694868	         -3.84695780	         -0.63170958	          8.83182693	          0.09378549	          0.82037339	         -0.01293804	         29.16773568	         -1.37737860	         -5.95510752	        -16.42753428	         -1.02544640	          0.21813459	        -15.41531955	         -1.37622422	         -1.53674470	        -19.85108221	          0.41085597	         33.97279562	         -6.78495569	          1.99672239	         -6.25025902	          0.12174053	          0.06610654	          0.01000000	          0.17673470	          0.28710099	          0.05129621	          0.10672246	          0.14086946	          0.03890515	          0.01000000	          0.04426677	          0.01000000	          0.00999999	          0.38640788	          0.23170531	          0.00999999	          0.00999999	          0.01787334	          0.17459951	          0.01351152	          0.07775947	          0.00999999	          0.13279784	          0.01000000	          0.00999999	          0.12005991	          0.12870785	          0.00999999	
          0.07810680	         -3.83167731	         -0.56633569	          8.62021030	          0.10890126	          0.82202703	         -0.01235194	         28.93185892	         -1.25362057	         -5.81768653	        -18.06537878	         -0.00712098	          0.32287954	        -13.99805674	         -1.49585708	         -2.22184568	        -23.91138398	         -1.14104625	         33.07969948	         -6.71092949	          2.38516792	         -6.30055403	          0.10475366	          0.05574055	          0.01000000	          0.17495590	          0.28559751	          0.05234816	          0.08998760	          0.12737599	          0.03280454	          0.01000000	          0.07141898	          0.01000000	          0.00999999	          0.32581629	          0.22926709	          0.00999999	          0.00999999	          0.01507067	          0.22908163	          0.01506489	          0.06556622	          0.00999999	          0.11197417	          0.01000000	          0.00999999	          0.10123364	          0.10852551	          0.00999999	
